# xmcd
#
# Track frame offsets:
#	150
#	15080
#	37110
#	54745
#	67460
#	83248
#	98320
#	112285
#	129975
#	147395
#	168400
#	182285
#
# Disc length: 2647 seconds
#
# Revision: 0
# Processed by: cddbd v1.5.1PL0 Copyright (c) Steve Scherf et al.
# Submitted via: dBpowerAMP V4.0
#
DISCID=a00a550c
DTITLE=Tony White - My Juke Box Life
DYEAR=1996
DGENRE=Country
TTITLE0=Rock N' Roll Songs
TTITLE1=Oh Donna
TTITLE2=Who Let It Rain
TTITLE3=When Will I Be Loved
TTITLE4=What Can I do
TTITLE5=And I Love Her
TTITLE6=She's My Kind Of Woman
TTITLE7=To Love Somebody
TTITLE8=So Low Down
TTITLE9=Drift Away
TTITLE10=Pretty Woman
TTITLE11=Together Forever
EXTD=This was my dad's album that passed away a short time ago
EXTT0=
EXTT1=
EXTT2=
EXTT3=
EXTT4=
EXTT5=
EXTT6=
EXTT7=
EXTT8=
EXTT9=
EXTT10=
EXTT11=
PLAYORDER=
